<svg xmlns="http://www.w3.org/2000/svg" version="1.1" xmlns:xlink="http://www.w3.org/1999/xlink" xmlns:svgjs="http://svgjs.com/svgjs" width="768" height="1024" preserveAspectRatio="none" viewBox="0 0 768 1024"><g mask="url(&quot;#SvgjsMask3204&quot;)" fill="none"><rect width="768" height="1024" x="0" y="0" fill="url(#SvgjsLinearGradient3205)"></rect><use xlink:href="#SvgjsSymbol3212" x="0" y="0"></use><use xlink:href="#SvgjsSymbol3212" x="0" y="720"></use><use xlink:href="#SvgjsSymbol3212" x="720" y="0"></use><use xlink:href="#SvgjsSymbol3212" x="720" y="720"></use></g><defs><mask id="SvgjsMask3204"><rect width="768" height="1024" fill="#ffffff"></rect></mask><linearGradient x1="-8.33%" y1="6.25%" x2="108.33%" y2="93.75%" gradientUnits="userSpaceOnUse" id="SvgjsLinearGradient3205"><stop stop-color="rgba(164, 68, 43, 1)" offset="0"></stop><stop stop-color="rgba(93, 27, 23, 1)" offset="0.22"></stop><stop stop-color="rgba(53, 11, 8, 1)" offset="0.68"></stop></linearGradient><path d="M-1 0 a1 1 0 1 0 2 0 a1 1 0 1 0 -2 0z" id="SvgjsPath3208"></path><path d="M-3 0 a3 3 0 1 0 6 0 a3 3 0 1 0 -6 0z" id="SvgjsPath3210"></path><path d="M-5 0 a5 5 0 1 0 10 0 a5 5 0 1 0 -10 0z" id="SvgjsPath3207"></path><path d="M2 -2 L-2 2z" id="SvgjsPath3211"></path><path d="M6 -6 L-6 6z" id="SvgjsPath3206"></path><path d="M30 -30 L-30 30z" id="SvgjsPath3209"></path></defs><symbol id="SvgjsSymbol3212"><use xlink:href="#SvgjsPath3206" x="30" y="30" stroke="rgba(123, 27, 20, 0.3)"></use><use xlink:href="#SvgjsPath3207" x="30" y="90" stroke="rgba(123, 27, 20, 0.3)"></use><use xlink:href="#SvgjsPath3208" x="30" y="150" stroke="rgba(164, 68, 43, 0.3)"></use><use xlink:href="#SvgjsPath3209" x="30" y="210" stroke="rgba(123, 27, 20, 0.3)" stroke-width="3"></use><use xlink:href="#SvgjsPath3210" x="30" y="270" stroke="rgba(164, 68, 43, 0.3)"></use><use xlink:href="#SvgjsPath3206" x="30" y="330" stroke="rgba(164, 68, 43, 0.3)"></use><use xlink:href="#SvgjsPath3211" x="30" y="390" stroke="rgba(164, 68, 43, 0.3)"></use><use xlink:href="#SvgjsPath3207" x="30" y="450" stroke="rgba(164, 68, 43, 0.3)"></use><use xlink:href="#SvgjsPath3210" x="30" y="510" stroke="rgba(164, 68, 43, 0.3)"></use><use xlink:href="#SvgjsPath3208" x="30" y="570" stroke="rgba(164, 68, 43, 0.3)"></use><use xlink:href="#SvgjsPath3211" x="30" y="630" stroke="rgba(164, 68, 43, 0.3)"></use><use xlink:href="#SvgjsPath3206" x="30" y="690" stroke="rgba(164, 68, 43, 0.3)"></use><use xlink:href="#SvgjsPath3211" x="90" y="30" stroke="rgba(164, 68, 43, 0.3)"></use><use xlink:href="#SvgjsPath3206" x="90" y="90" stroke="rgba(123, 27, 20, 0.3)"></use><use xlink:href="#SvgjsPath3211" x="90" y="150" stroke="rgba(123, 27, 20, 0.3)"></use><use xlink:href="#SvgjsPath3207" x="90" y="210" stroke="rgba(123, 27, 20, 0.3)"></use><use xlink:href="#SvgjsPath3208" x="90" y="270" stroke="rgba(164, 68, 43, 0.3)"></use><use xlink:href="#SvgjsPath3207" x="90" y="330" stroke="rgba(123, 27, 20, 0.3)"></use><use xlink:href="#SvgjsPath3211" x="90" y="390" stroke="rgba(164, 68, 43, 0.3)"></use><use xlink:href="#SvgjsPath3210" x="90" y="450" stroke="rgba(123, 27, 20, 0.3)"></use><use xlink:href="#SvgjsPath3207" x="90" y="510" stroke="rgba(123, 27, 20, 0.3)"></use><use xlink:href="#SvgjsPath3206" x="90" y="570" stroke="rgba(123, 27, 20, 0.3)"></use><use xlink:href="#SvgjsPath3207" x="90" y="630" stroke="rgba(164, 68, 43, 0.3)"></use><use xlink:href="#SvgjsPath3208" x="90" y="690" stroke="rgba(123, 27, 20, 0.3)"></use><use xlink:href="#SvgjsPath3207" x="150" y="30" stroke="rgba(164, 68, 43, 0.3)"></use><use xlink:href="#SvgjsPath3210" x="150" y="90" stroke="rgba(164, 68, 43, 0.3)"></use><use xlink:href="#SvgjsPath3211" x="150" y="150" stroke="rgba(164, 68, 43, 0.3)"></use><use xlink:href="#SvgjsPath3211" x="150" y="210" stroke="rgba(123, 27, 20, 0.3)"></use><use xlink:href="#SvgjsPath3210" x="150" y="270" stroke="rgba(164, 68, 43, 0.3)"></use><use xlink:href="#SvgjsPath3206" x="150" y="330" stroke="rgba(123, 27, 20, 0.3)"></use><use xlink:href="#SvgjsPath3206" x="150" y="390" stroke="rgba(164, 68, 43, 0.3)"></use><use xlink:href="#SvgjsPath3208" x="150" y="450" stroke="rgba(164, 68, 43, 0.3)"></use><use xlink:href="#SvgjsPath3206" x="150" y="510" stroke="rgba(123, 27, 20, 0.3)"></use><use xlink:href="#SvgjsPath3211" x="150" y="570" stroke="rgba(164, 68, 43, 0.3)"></use><use xlink:href="#SvgjsPath3210" x="150" y="630" stroke="rgba(123, 27, 20, 0.3)"></use><use xlink:href="#SvgjsPath3209" x="150" y="690" stroke="rgba(123, 27, 20, 0.3)" stroke-width="3"></use><use xlink:href="#SvgjsPath3206" x="210" y="30" stroke="rgba(164, 68, 43, 0.3)"></use><use xlink:href="#SvgjsPath3208" x="210" y="90" stroke="rgba(164, 68, 43, 0.3)"></use><use xlink:href="#SvgjsPath3209" x="210" y="150" stroke="rgba(164, 68, 43, 0.3)" stroke-width="3"></use><use xlink:href="#SvgjsPath3206" x="210" y="210" stroke="rgba(164, 68, 43, 0.3)"></use><use xlink:href="#SvgjsPath3211" x="210" y="270" stroke="rgba(164, 68, 43, 0.3)"></use><use xlink:href="#SvgjsPath3211" x="210" y="330" stroke="rgba(164, 68, 43, 0.3)"></use><use xlink:href="#SvgjsPath3210" x="210" y="390" stroke="rgba(164, 68, 43, 0.3)"></use><use xlink:href="#SvgjsPath3206" x="210" y="450" stroke="rgba(164, 68, 43, 0.3)"></use><use xlink:href="#SvgjsPath3207" x="210" y="510" stroke="rgba(123, 27, 20, 0.3)"></use><use xlink:href="#SvgjsPath3207" x="210" y="570" stroke="rgba(164, 68, 43, 0.3)"></use><use xlink:href="#SvgjsPath3207" x="210" y="630" stroke="rgba(164, 68, 43, 0.3)"></use><use xlink:href="#SvgjsPath3206" x="210" y="690" stroke="rgba(164, 68, 43, 0.3)"></use><use xlink:href="#SvgjsPath3207" x="270" y="30" stroke="rgba(164, 68, 43, 0.3)"></use><use xlink:href="#SvgjsPath3211" x="270" y="90" stroke="rgba(123, 27, 20, 0.3)"></use><use xlink:href="#SvgjsPath3211" x="270" y="150" stroke="rgba(164, 68, 43, 0.3)"></use><use xlink:href="#SvgjsPath3207" x="270" y="210" stroke="rgba(164, 68, 43, 0.3)"></use><use xlink:href="#SvgjsPath3208" x="270" y="270" stroke="rgba(123, 27, 20, 0.3)"></use><use xlink:href="#SvgjsPath3206" x="270" y="330" stroke="rgba(164, 68, 43, 0.3)"></use><use xlink:href="#SvgjsPath3206" x="270" y="390" stroke="rgba(164, 68, 43, 0.3)"></use><use xlink:href="#SvgjsPath3206" x="270" y="450" stroke="rgba(123, 27, 20, 0.3)"></use><use xlink:href="#SvgjsPath3208" x="270" y="510" stroke="rgba(164, 68, 43, 0.3)"></use><use xlink:href="#SvgjsPath3207" x="270" y="570" stroke="rgba(123, 27, 20, 0.3)"></use><use xlink:href="#SvgjsPath3206" x="270" y="630" stroke="rgba(164, 68, 43, 0.3)"></use><use xlink:href="#SvgjsPath3206" x="270" y="690" stroke="rgba(164, 68, 43, 0.3)"></use><use xlink:href="#SvgjsPath3206" x="330" y="30" stroke="rgba(123, 27, 20, 0.3)"></use><use xlink:href="#SvgjsPath3211" x="330" y="90" stroke="rgba(164, 68, 43, 0.3)"></use><use xlink:href="#SvgjsPath3207" x="330" y="150" stroke="rgba(123, 27, 20, 0.3)"></use><use xlink:href="#SvgjsPath3206" x="330" y="210" stroke="rgba(164, 68, 43, 0.3)"></use><use xlink:href="#SvgjsPath3208" x="330" y="270" stroke="rgba(123, 27, 20, 0.3)"></use><use xlink:href="#SvgjsPath3206" x="330" y="330" stroke="rgba(164, 68, 43, 0.3)"></use><use xlink:href="#SvgjsPath3206" x="330" y="390" stroke="rgba(123, 27, 20, 0.3)"></use><use xlink:href="#SvgjsPath3211" x="330" y="450" stroke="rgba(164, 68, 43, 0.3)"></use><use xlink:href="#SvgjsPath3206" x="330" y="510" stroke="rgba(164, 68, 43, 0.3)"></use><use xlink:href="#SvgjsPath3206" x="330" y="570" stroke="rgba(164, 68, 43, 0.3)"></use><use xlink:href="#SvgjsPath3210" x="330" y="630" stroke="rgba(164, 68, 43, 0.3)"></use><use xlink:href="#SvgjsPath3207" x="330" y="690" stroke="rgba(123, 27, 20, 0.3)"></use><use xlink:href="#SvgjsPath3210" x="390" y="30" stroke="rgba(164, 68, 43, 0.3)"></use><use xlink:href="#SvgjsPath3208" x="390" y="90" stroke="rgba(123, 27, 20, 0.3)"></use><use xlink:href="#SvgjsPath3207" x="390" y="150" stroke="rgba(164, 68, 43, 0.3)"></use><use xlink:href="#SvgjsPath3210" x="390" y="210" stroke="rgba(164, 68, 43, 0.3)"></use><use xlink:href="#SvgjsPath3207" x="390" y="270" stroke="rgba(123, 27, 20, 0.3)"></use><use xlink:href="#SvgjsPath3206" x="390" y="330" stroke="rgba(123, 27, 20, 0.3)"></use><use xlink:href="#SvgjsPath3207" x="390" y="390" stroke="rgba(164, 68, 43, 0.3)"></use><use xlink:href="#SvgjsPath3206" x="390" y="450" stroke="rgba(164, 68, 43, 0.3)"></use><use xlink:href="#SvgjsPath3207" x="390" y="510" stroke="rgba(123, 27, 20, 0.3)"></use><use xlink:href="#SvgjsPath3207" x="390" y="570" stroke="rgba(164, 68, 43, 0.3)"></use><use xlink:href="#SvgjsPath3211" x="390" y="630" stroke="rgba(123, 27, 20, 0.3)"></use><use xlink:href="#SvgjsPath3207" x="390" y="690" stroke="rgba(123, 27, 20, 0.3)"></use><use xlink:href="#SvgjsPath3208" x="450" y="30" stroke="rgba(164, 68, 43, 0.3)"></use><use xlink:href="#SvgjsPath3210" x="450" y="90" stroke="rgba(164, 68, 43, 0.3)"></use><use xlink:href="#SvgjsPath3211" x="450" y="150" stroke="rgba(164, 68, 43, 0.3)"></use><use xlink:href="#SvgjsPath3207" x="450" y="210" stroke="rgba(123, 27, 20, 0.3)"></use><use xlink:href="#SvgjsPath3209" x="450" y="270" stroke="rgba(164, 68, 43, 0.3)" stroke-width="3"></use><use xlink:href="#SvgjsPath3207" x="450" y="330" stroke="rgba(164, 68, 43, 0.3)"></use><use xlink:href="#SvgjsPath3206" x="450" y="390" stroke="rgba(164, 68, 43, 0.3)"></use><use xlink:href="#SvgjsPath3206" x="450" y="450" stroke="rgba(123, 27, 20, 0.3)"></use><use xlink:href="#SvgjsPath3209" x="450" y="510" stroke="rgba(123, 27, 20, 0.3)" stroke-width="3"></use><use xlink:href="#SvgjsPath3207" x="450" y="570" stroke="rgba(123, 27, 20, 0.3)"></use><use xlink:href="#SvgjsPath3208" x="450" y="630" stroke="rgba(164, 68, 43, 0.3)"></use><use xlink:href="#SvgjsPath3207" x="450" y="690" stroke="rgba(123, 27, 20, 0.3)"></use><use xlink:href="#SvgjsPath3211" x="510" y="30" stroke="rgba(164, 68, 43, 0.3)"></use><use xlink:href="#SvgjsPath3206" x="510" y="90" stroke="rgba(164, 68, 43, 0.3)"></use><use xlink:href="#SvgjsPath3210" x="510" y="150" stroke="rgba(123, 27, 20, 0.3)"></use><use xlink:href="#SvgjsPath3210" x="510" y="210" stroke="rgba(123, 27, 20, 0.3)"></use><use xlink:href="#SvgjsPath3206" x="510" y="270" stroke="rgba(164, 68, 43, 0.3)"></use><use xlink:href="#SvgjsPath3206" x="510" y="330" stroke="rgba(164, 68, 43, 0.3)"></use><use xlink:href="#SvgjsPath3206" x="510" y="390" stroke="rgba(123, 27, 20, 0.3)"></use><use xlink:href="#SvgjsPath3210" x="510" y="450" stroke="rgba(123, 27, 20, 0.3)"></use><use xlink:href="#SvgjsPath3206" x="510" y="510" stroke="rgba(123, 27, 20, 0.3)"></use><use xlink:href="#SvgjsPath3206" x="510" y="570" stroke="rgba(164, 68, 43, 0.3)"></use><use xlink:href="#SvgjsPath3207" x="510" y="630" stroke="rgba(123, 27, 20, 0.3)"></use><use xlink:href="#SvgjsPath3206" x="510" y="690" stroke="rgba(164, 68, 43, 0.3)"></use><use xlink:href="#SvgjsPath3207" x="570" y="30" stroke="rgba(123, 27, 20, 0.3)"></use><use xlink:href="#SvgjsPath3206" x="570" y="90" stroke="rgba(164, 68, 43, 0.3)"></use><use xlink:href="#SvgjsPath3207" x="570" y="150" stroke="rgba(123, 27, 20, 0.3)"></use><use xlink:href="#SvgjsPath3206" x="570" y="210" stroke="rgba(164, 68, 43, 0.3)"></use><use xlink:href="#SvgjsPath3207" x="570" y="270" stroke="rgba(123, 27, 20, 0.3)"></use><use xlink:href="#SvgjsPath3210" x="570" y="330" stroke="rgba(123, 27, 20, 0.3)"></use><use xlink:href="#SvgjsPath3206" x="570" y="390" stroke="rgba(123, 27, 20, 0.3)"></use><use xlink:href="#SvgjsPath3207" x="570" y="450" stroke="rgba(164, 68, 43, 0.3)"></use><use xlink:href="#SvgjsPath3207" x="570" y="510" stroke="rgba(123, 27, 20, 0.3)"></use><use xlink:href="#SvgjsPath3209" x="570" y="570" stroke="rgba(123, 27, 20, 0.3)" stroke-width="3"></use><use xlink:href="#SvgjsPath3206" x="570" y="630" stroke="rgba(164, 68, 43, 0.3)"></use><use xlink:href="#SvgjsPath3211" x="570" y="690" stroke="rgba(123, 27, 20, 0.3)"></use><use xlink:href="#SvgjsPath3207" x="630" y="30" stroke="rgba(164, 68, 43, 0.3)"></use><use xlink:href="#SvgjsPath3206" x="630" y="90" stroke="rgba(164, 68, 43, 0.3)"></use><use xlink:href="#SvgjsPath3211" x="630" y="150" stroke="rgba(164, 68, 43, 0.3)"></use><use xlink:href="#SvgjsPath3211" x="630" y="210" stroke="rgba(164, 68, 43, 0.3)"></use><use xlink:href="#SvgjsPath3208" x="630" y="270" stroke="rgba(164, 68, 43, 0.3)"></use><use xlink:href="#SvgjsPath3208" x="630" y="330" stroke="rgba(123, 27, 20, 0.3)"></use><use xlink:href="#SvgjsPath3206" x="630" y="390" stroke="rgba(123, 27, 20, 0.3)"></use><use xlink:href="#SvgjsPath3206" x="630" y="450" stroke="rgba(164, 68, 43, 0.3)"></use><use xlink:href="#SvgjsPath3206" x="630" y="510" stroke="rgba(123, 27, 20, 0.3)"></use><use xlink:href="#SvgjsPath3207" x="630" y="570" stroke="rgba(123, 27, 20, 0.3)"></use><use xlink:href="#SvgjsPath3207" x="630" y="630" stroke="rgba(164, 68, 43, 0.3)"></use><use xlink:href="#SvgjsPath3207" x="630" y="690" stroke="rgba(164, 68, 43, 0.3)"></use><use xlink:href="#SvgjsPath3207" x="690" y="30" stroke="rgba(123, 27, 20, 0.3)"></use><use xlink:href="#SvgjsPath3210" x="690" y="90" stroke="rgba(164, 68, 43, 0.3)"></use><use xlink:href="#SvgjsPath3206" x="690" y="150" stroke="rgba(123, 27, 20, 0.3)"></use><use xlink:href="#SvgjsPath3207" x="690" y="210" stroke="rgba(164, 68, 43, 0.3)"></use><use xlink:href="#SvgjsPath3206" x="690" y="270" stroke="rgba(164, 68, 43, 0.3)"></use><use xlink:href="#SvgjsPath3211" x="690" y="330" stroke="rgba(164, 68, 43, 0.3)"></use><use xlink:href="#SvgjsPath3206" x="690" y="390" stroke="rgba(164, 68, 43, 0.3)"></use><use xlink:href="#SvgjsPath3210" x="690" y="450" stroke="rgba(164, 68, 43, 0.3)"></use><use xlink:href="#SvgjsPath3207" x="690" y="510" stroke="rgba(123, 27, 20, 0.3)"></use><use xlink:href="#SvgjsPath3207" x="690" y="570" stroke="rgba(164, 68, 43, 0.3)"></use><use xlink:href="#SvgjsPath3206" x="690" y="630" stroke="rgba(164, 68, 43, 0.3)"></use><use xlink:href="#SvgjsPath3207" x="690" y="690" stroke="rgba(164, 68, 43, 0.3)"></use></symbol></svg>